<svg xmlns="http://www.w3.org/2000/svg" width="32" height="29"><path d="M31.9 7.56l-5.41 12.42c-.19.43-.61.71-1.08.71H10.55c-.53 0-1-.36-1.14-.87L4.58 2.36h-3.4C.53 2.36 0 1.83 0 1.18 0 .53.53 0 1.18 0h4.28C6 0 6.47.35 6.61.87l4.83 17.45h13.18L29 8.27H14.4c-.65 0-1.18-.53-1.18-1.18 0-.65.53-1.18 1.18-1.18h16.41c.4 0 .77.2.99.53.22.34.26.75.1 1.12zM9.43 23.64a2.68 2.68 0 1 1 0 5.36 2.68 2.68 0 0 1 0-5.36zm16.59 0c1.48-.1 2.76 1.03 2.86 2.48.04.73-.18 1.42-.65 1.95-.47.56-1.12.87-1.84.93h-.19c-1.4 0-2.57-1.1-2.67-2.5-.09-1.46 1.01-2.76 2.49-2.86z" fill="#212121"/></svg>