<svg xmlns="http://www.w3.org/2000/svg" width="40" height="40"><path id="Forma_1" data-name="Forma 1" d="M1056.78 3102.5c-1.89 0-3.46 1.63-3.46 4.56.02 2.91 1.57 4.37 3.35 4.37 1.83 0 3.42-1.52 3.42-4.59 0-2.77-1.3-4.34-3.31-4.34zm-.06 7.74c-1.19 0-1.9-1.41-1.88-3.26 0-1.84.67-3.29 1.88-3.29 1.34 0 1.85 1.47 1.85 3.24 0 1.92-.58 3.31-1.85 3.31zm-5.95-9.42c0-2.77-1.32-4.34-3.33-4.34-1.89 0-3.46 1.64-3.46 4.54.03 2.93 1.57 4.39 3.35 4.39 1.85 0 3.44-1.52 3.44-4.59zm-5.24.14c0-1.84.64-3.29 1.85-3.29 1.34 0 1.85 1.47 1.85 3.24 0 1.93-.58 3.31-1.85 3.31-1.21 0-1.9-1.41-1.85-3.26zm10.08-4.32l-8.41 14.75h1.23l8.42-14.75h-1.24zm12.97 10.33l3.42-2.97-3.42-2.97 2.21-3.98-4.2-1.6.73-4.5-4.5-.05-.82-4.49-4.24 1.52-2.29-3.93-3.47 2.9-3.47-2.9-2.29 3.93-4.24-1.52-.82 4.49-4.5.05.74 4.5-4.22 1.6 2.22 3.98-3.42 2.97 3.42 2.97-2.22 3.98 4.21 1.6-.73 4.5 4.5.05.82 4.49 4.24-1.52 2.29 3.93 3.47-2.9 3.47 2.9 2.29-3.93 4.24 1.52.82-4.49 4.5-.05-.74-4.5 4.21-1.6zm-2.66 3.78l-1.46.55.25 1.57.37 2.28-2.28.02-1.56.02-.28 1.56-.42 2.28-2.15-.77-1.47-.53-.79 1.36-1.16 2-1.76-1.48-1.21-1.01-1.21 1.01-1.76 1.48-1.16-2-.79-1.36-1.47.53-2.15.76-.42-2.27-.29-1.56-1.56-.02-2.28-.02.37-2.29.26-1.56-1.46-.56-2.14-.81 1.13-2.01.76-1.38-1.18-1.03-1.73-1.51 1.73-1.51 1.18-1.03-.76-1.38-1.12-2.02 2.13-.81 1.46-.56-.25-1.56-.38-2.28 2.29-.03 1.56-.01.28-1.56.42-2.28 2.15.77 1.47.52.79-1.36 1.16-1.99 1.76 1.47 1.21 1.01 1.2-1.01 1.77-1.47 1.16 2 .79 1.36 1.47-.53 2.15-.77.42 2.28.28 1.56 1.56.01 2.29.03-.37 2.28-.26 1.57 1.46.55 2.13.81-1.12 2.02-.76 1.38 1.18 1.03 1.73 1.51-1.73 1.51-1.18 1.03.76 1.38 1.12 2.01z" transform="translate(-1032 -3084)" fill="#f16d7f" fill-rule="evenodd"/></svg>