<svg id="Слой_1" data-name="Слой 1" xmlns="http://www.w3.org/2000/svg" viewBox="0 0 12 15.44"><path d="M0 0v15.44h12V0H0zm11.86 6.79L9.18 9.3l.69 3.6a.45.45 0 0 1-.66.48L6 11.61l-3.21 1.77a.45.45 0 0 1-.66-.48l.69-3.6L.14 6.79A.45.45 0 0 1 .4 6L4 5.55l1.59-3.31a.47.47 0 0 1 .82 0L8 5.55l3.6.45a.45.45 0 0 1 .26.79z" fill="#fff"/><path d="M9.43 13.44a.45.45 0 0 1-.22-.06L6 11.61l-3.21 1.77a.45.45 0 0 1-.66-.48l.69-3.6L.14 6.79A.45.45 0 0 1 .4 6L4 5.55l1.59-3.31a.47.47 0 0 1 .82 0L8 5.55l3.6.45a.45.45 0 0 1 .25.78L9.18 9.3l.69 3.6a.45.45 0 0 1-.44.54zM6 10.64a.45.45 0 0 1 .22.06l2.58 1.42-.55-2.9a.45.45 0 0 1 .13-.42l2.15-2-2.92-.38a.46.46 0 0 1-.35-.26L6 3.49 4.75 6.17a.45.45 0 0 1-.35.26l-2.93.37 2.15 2a.45.45 0 0 1 .14.42l-.56 2.9 2.58-1.42a.45.45 0 0 1 .22-.06z" fill="#e4af47"/></svg>