<svg id="Слой_1" data-name="Слой 1" xmlns="http://www.w3.org/2000/svg" viewBox="0 0 12 15.44"><defs><style>.cls-1{fill:#fff;}.cls-2{fill:#e4af47;}</style></defs><title>звезда2</title><path class="cls-1" d="M0,0V15.44H12V0H0ZM11.86,6.79L9.18,9.3l0.69,3.6a0.45,0.45,0,0,1-.66.48L6,11.61,2.79,13.38a0.45,0.45,0,0,1-.66-0.48L2.82,9.3,0.14,6.79A0.45,0.45,0,0,1,.4,6L4,5.55,5.59,2.24a0.47,0.47,0,0,1,.82,0L8,5.55,11.6,6A0.45,0.45,0,0,1,11.86,6.79Z" transform="translate(0)"/><path class="cls-2" d="M9.43,13.44a0.45,0.45,0,0,1-.22-0.06L6,11.61,2.79,13.38a0.45,0.45,0,0,1-.66-0.48L2.82,9.3,0.14,6.79A0.45,0.45,0,0,1,.4,6L4,5.55,5.59,2.24a0.47,0.47,0,0,1,.82,0L8,5.55,11.6,6a0.45,0.45,0,0,1,.25.78L9.18,9.3l0.69,3.6A0.45,0.45,0,0,1,9.43,13.44ZM6,10.64a0.45,0.45,0,0,1,.22.06L8.8,12.12,8.25,9.22a0.45,0.45,0,0,1,.13-0.42l2.15-2L7.61,6.42a0.46,0.46,0,0,1-.35-0.26L6,3.49,4.75,6.17a0.45,0.45,0,0,1-.35.26l-2.93.37,2.15,2a0.45,0.45,0,0,1,.14.42L3.2,12.12,5.78,10.7A0.45,0.45,0,0,1,6,10.64Z" transform="translate(0)"/></svg>